<?xml version="1.0" standalone="no"?><!DOCTYPE svg PUBLIC "-//W3C//DTD SVG 1.1//EN" "http://www.w3.org/Graphics/SVG/1.1/DTD/svg11.dtd"><svg t="1523525955210" class="icon" style="" viewBox="0 0 1024 1024" version="1.1" xmlns="http://www.w3.org/2000/svg" p-id="9148" xmlns:xlink="http://www.w3.org/1999/xlink" width="200" height="200"><defs><style type="text/css"></style></defs><path d="M821.376 707.797h-618.75l-84.375 84.375v28.125l28.125 28.125h253.125c0 62.129 50.372 112.499 112.499 112.499s112.499-50.372 112.499-112.499h253.126l28.125-28.125v-28.125l-84.375-84.375zM793.251 482.796c0-115.313-69.469-214.256-168.749-257.681v-51.694c0-62.129-50.372-112.499-112.499-112.499s-112.499 50.372-112.499 112.499v51.694c-99.281 43.425-168.749 142.369-168.749 257.681v196.875h562.5v-196.875zM455.75 173.422c0-31.050 25.2-56.25 56.25-56.25s56.25 25.2 56.25 56.25h-112.499z" p-id="9149"></path></svg>