<?xml version="1.0" standalone="no"?><!DOCTYPE svg PUBLIC "-//W3C//DTD SVG 1.1//EN" "http://www.w3.org/Graphics/SVG/1.1/DTD/svg11.dtd"><svg t="1523525606326" class="icon" style="" viewBox="0 0 1025 1024" version="1.1" xmlns="http://www.w3.org/2000/svg" p-id="911" xmlns:xlink="http://www.w3.org/1999/xlink" width="200.1953125" height="200"><defs><style type="text/css"></style></defs><path d="M896 128H128a64.19 64.19 0 0 0-64 64v512a64.19 64.19 0 0 0 64 64h192v64h384v-64h192a64.19 64.19 0 0 0 64-64V192a64.19 64.19 0 0 0-64-64z m0 576H128V192h768z" p-id="912"></path><path d="M768 672v-96h-96v96h96zM416 416v32H288a96 96 0 1 0 0 192h319.75v32L672 623.5 607.75 576v32H288a64 64 0 0 1 0-128h128v32h96v-96z" p-id="913"></path><path d="M576.25 480H672a96 96 0 1 0 0-192H288v-32h-96v96h96v-32h384a64 64 0 0 1 0 128h-95.75v-32L512 463.5l64.25 48.5z" p-id="914"></path></svg>