<?xml version="1.0" standalone="no"?><!DOCTYPE svg PUBLIC "-//W3C//DTD SVG 1.1//EN" "http://www.w3.org/Graphics/SVG/1.1/DTD/svg11.dtd"><svg t="1523525912916" class="icon" style="" viewBox="0 0 1024 1024" version="1.1" xmlns="http://www.w3.org/2000/svg" p-id="8485" xmlns:xlink="http://www.w3.org/1999/xlink" width="200" height="200"><defs><style type="text/css"></style></defs><path d="M937.694867 911.324778l-196.47479 0c-36.151361 0-65.491597-29.340235-65.491597-65.491597L675.72848 716.356294c0-36.151361 29.340235-65.491597 65.491597-65.491597l65.491597 0L806.711673 520.66638l-589.42437 0 0 130.198318 65.491597 0c36.151361 0 65.491597 29.340235 65.491597 65.491597l0 129.475863c0 36.151361-29.340235 65.491597-65.491597 65.491597l-196.47479 0c-36.151361 0-65.491597-29.340235-65.491597-65.491597L20.812513 716.356294c0-36.151361 29.340235-65.491597 65.491597-65.491597l65.491597 0L151.795707 488.314555c0-0.065492 0-0.065492 0-0.130983l0-0.065492c0-18.010189 14.604626-32.549324 32.549324-32.549324l294.90866 0L479.25369 325.305971l-65.491597 0c-36.151361 0-65.491597-29.274744-65.491597-65.491597L348.270497 130.402979c0-36.216853 29.340235-65.491597 65.491597-65.491597l196.47479 0c36.151361 0 65.491597 29.274744 65.491597 65.491597l0 129.411395c0 36.216853-29.340235 65.491597-65.491597 65.491597l-65.491597 0L544.745287 455.568756l294.90866 0c17.944697 0 32.549324 14.539134 32.549324 32.549324l0 0.065492c0 0.064468 0 0.064468 0 0.130983l0 162.550143 65.491597 0c36.151361 0 65.491597 29.340235 65.491597 65.491597l0 129.475863C1003.186464 881.984542 973.846228 911.324778 937.694867 911.324778z" p-id="8486"></path></svg>