<?xml version="1.0" standalone="no"?><!DOCTYPE svg PUBLIC "-//W3C//DTD SVG 1.1//EN" "http://www.w3.org/Graphics/SVG/1.1/DTD/svg11.dtd"><svg t="1523526024629" class="icon" style="" viewBox="0 0 1024 1024" version="1.1" xmlns="http://www.w3.org/2000/svg" p-id="11122" xmlns:xlink="http://www.w3.org/1999/xlink" width="200" height="200"><defs><style type="text/css"></style></defs><path d="M648.732 801.053c0-10.648-7.679-19.268-17.136-19.268h-239.881c-9.456 0-17.135 8.619-17.135 19.268v77.064h-171.345v57.792h616.822v-57.792h-171.326v-77.064zM896.986 98.897h-770.659c-31.928 0-57.797 25.851-57.797 57.779v539.455c0 31.909 25.868 57.796 57.797 57.796h770.659c31.929 0 57.798-25.887 57.798-57.796v-539.455c0-31.928-25.868-57.779-57.798-57.779v0zM896.986 676.829c0 10.629-8.638 19.263-19.266 19.263h-732.127c-10.647 0-19.262-8.633-19.262-19.263v-500.906c0-10.652 8.615-19.267 19.262-19.267h732.126c10.627 0 19.266 8.616 19.266 19.267v500.906h0.001zM195.102 405.517c0 0 54.443-0.738 60.456-2.213 6.012-1.477 11.912-4.242 17.702-8.301l10.689-8.854c4.453-3.69 38.967-37.076 43.42-41.503 8.906-9.222 16.923-12.819 24.049-10.791 7.125 2.029 12.47 6.365 16.031 13.005l29.392 66.959c15.142-35.047 81.428-197.925 81.875-199.77 2.227-6.272 6.526-11.345 10.98-15.218 4.453-3.874 20.378-9.802 32.734-1.659 5.694 3.753 10.242 8.393 12.023 16.878 0.444 2.213 1.336 8.116 2.672 17.707s28.054 240.018 35.625 292.405c9.796-26.562 65.142-165.312 66.032-166.788 2.227-5.903 4.899-10.329 8.016-13.282 3.118-2.952 7.349-4.98 12.694-6.087 10.242-2.213 13.158-0.685 18.786 2.6 5.953 3.473 10.732 10.467 11.941 15.108 2.127 8.148 31.55 84.024 31.55 84.024 0.444-0.369 18.753-23.584 23.164-30.2 5.814-7.216 9.464-11.38 17.703-13.411s13.264-0.94 20.836-0.572c4.897 0.369 45.426 0.553 45.426 0.553v44.935c-2.672 0.369-30.182-0.406-30.182-0.406-6.233-0.369-12.023-0.905-17.368 2.231s-5.864 3.189-8.093 6.141c-1.781 2.951-23.427 35.405-32.315 47.113-1.781 4.428-8.514 6.419-12.522 7.895-4.008 1.476-8.128 2.122-12.357 1.937-4.233-0.184-8.241-1.199-12.025-3.043-3.785-1.845-6.346-4.058-7.683-6.64-1.336-2.583-26.925-59.804-30.933-68.658-11.579 30.62-73.072 190.955-73.518 193.169-4.12 10.642-6.458 15.862-12.691 21.028-6.238 5.165-12.848 7.564-21.754 7.194-9.353-0.738-18.511-6.471-22.519-12.373-4.008-5.903-4.939-10.316-5.829-18.063 0-1.845-0.559-7.564-1.672-17.155s-2.559-21.766-4.341-36.522c-1.781-14.758-22.714-197.557-29.392-251.788-12.47 30.251-69.473 169.334-69.473 169.334-2.227 4.797-5.233 9.223-9.018 13.282-3.786 4.058-9.686 5.902-17.703 5.534-8.017 0-14.029-2.306-18.037-6.917-4.008-4.612-7.125-9.869-9.352-15.771-1.335-2.951-28.725-64.929-34.069-77.473-3.118 3.321-27.166 26.562-30.729 29.882-7.126 7.010-13.806 11.806-20.041 14.389-6.235 2.583-13.583 3.504-22.045 2.767-4.453-0.369-57.894 0.553-68.137 0.553v-43.166z" p-id="11123"></path></svg>