<?xml version="1.0" standalone="no"?><!DOCTYPE svg PUBLIC "-//W3C//DTD SVG 1.1//EN" "http://www.w3.org/Graphics/SVG/1.1/DTD/svg11.dtd"><svg t="1531271620806" class="icon" style="" viewBox="0 0 1024 1024" version="1.1" xmlns="http://www.w3.org/2000/svg" p-id="2716" xmlns:xlink="http://www.w3.org/1999/xlink" width="90" height="90"><defs><style type="text/css"></style></defs><path d="M854.809111 603.651396c-44.474934-23.14821-99.249445-38.761815-158.718884-45.713134 0 0 69.298296-28.28009 93.207845-65.949015h-0.036839c35.596729-39.016619 55.067176-88.660272 55.067176-141.287887 0-56.95927-22.818705-110.533442-64.273862-150.823053-41.454134-40.291658-96.594989-62.455447-155.225317-62.455448-58.635445 0-113.774253 22.163789-155.229411 62.455448a220.538859 220.538859 0 0 0-22.818705 25.98686h4.183276c18.053168 0 35.81367 2.111081 52.884464 6.18691 0 0 184.815239 41.490973 152.351874 283.011702-10.844999 27.807323-27.734668 53.283554-50.042743 74.902944-3.858888 3.783163 8.370645 10.044774 18.671245 10.044773 0 0 171.276898 56.776098 167.272701 168.220283l110.75243 0.218987-0.036839 0.034793h50.771337c2.912329-10.081613 4.440126-20.344351 4.440125-30.827099-0.001023-51.863205-36.649711-99.468432-103.219873-134.007064zM626.756115 717.931163c-47.75156-24.821315-107.405195-41.016159-171.934884-47.094598 36.395932-9.644661 69.771063-28.351722 97.139388-54.957683 41.455157-40.326451 64.312748-93.863784 64.312748-150.859893 0-56.95927-22.857591-110.533442-64.312748-150.85887-41.453111-40.253796-96.55508-62.454424-155.189502-62.454423S282.998911 273.9053 241.543753 314.160119c-41.454134 40.325427-64.274886 93.8996-64.274885 150.85887 0 56.996109 22.820752 110.533442 64.274885 150.859893 27.40721 26.605961 60.780295 45.313022 97.17725 54.957683-64.565505 6.078439-124.1823 22.274306-171.969676 47.094598-66.531276 34.576493-103.182011 82.182744-103.182011 134.010133 0 10.480702 1.528819 20.782326 4.440126 30.862915H725.496977c2.948145-10.081613 4.439102-20.382213 4.439102-30.862915 0-51.827389-36.612872-99.43364-103.179964-134.010133z" p-id="2717"></path></svg>